<svg id="Capa_1" enable-background="new 0 0 512.001 512.001" height="512" viewBox="0 0 512.001 512.001" width="512" xmlns="http://www.w3.org/2000/svg"><g><g><path d="m278.768 451.205h-92.334l-160.395-87.079-18.539-120.84 65.729-33.63 69.469-130.025 178.279-18.826 89.323 88.285 66.841 27.481 27.357 182.11z" fill="#a79ba7"/><g fill="#7a6d79"><path d="m171.962 191.451 24.899 48.234-39.449 26.646-84.18-56.67 69.47-130.03z"/><path d="m186.431 451.201-160.389-87.07-18.54-120.84 149.91 23.04 45.358 92.35z"/><path d="m504.5 358.68-225.729 92.521-10.649-91.357 65.349-93.513 143.67-89.76z"/></g><path d="m410.303 149.086-76.83 117.24-54.7 184.87h-92.34l-29.019-184.87 14.549-74.88 149.02-130.65z" fill="#918291"/></g><g><path d="m511.917 357.566-27.36-182.11c-.393-2.608-2.126-4.819-4.565-5.822l-65.471-26.917-88.268-87.25c-1.599-1.581-3.818-2.361-6.061-2.125l-178.28 18.83c-2.473.261-4.655 1.731-5.827 3.924l-27.7 51.84c-1.952 3.653-.573 8.198 3.08 10.15 3.652 1.952 8.197.573 10.149-3.08l18.676-34.951 23.985 91.636-12.073 62.099-69.166-46.568 22.188-41.527c1.952-3.653.573-8.198-3.08-10.149-3.653-1.953-8.198-.573-10.149 3.08l-24.273 45.428-63.638 32.56c-2.876 1.472-4.487 4.62-3.997 7.814l18.54 120.84c.355 2.318 1.774 4.335 3.835 5.454l160.39 87.07c1.098.596 2.328.909 3.578.909h92.339c.976 0 1.941-.19 2.844-.56l126.66-51.91c3.833-1.571 5.667-5.951 4.096-9.784-1.57-3.833-5.951-5.666-9.783-4.096l-112.188 45.979 49.451-167.148 131.572-82.194 24.788 164.986-61.323 25.137c-3.833 1.571-5.666 5.952-4.095 9.784 1.189 2.902 3.989 4.658 6.942 4.657.947 0 1.911-.181 2.842-.562l66.77-27.37c3.197-1.311 5.086-4.636 4.572-8.054zm-335.771-179.761-23.984-91.632 146.104-15.432zm-103.436 40.546 52.676 35.466-93.812-14.419zm-56.247 33.901 134.378 20.655 9.14 58.217c.581 3.698 3.771 6.338 7.4 6.338.387 0 .779-.03 1.172-.092 4.092-.643 6.889-4.48 6.246-8.572l-9.784-62.316 13.821-71.087 141.839-124.35 79.989 79.067-73.472 112.105c-.411.626-.694 1.3-.898 1.99l-.021-.006-53.106 179.501h-80.323l-12.615-80.324c-.642-4.092-4.478-6.889-8.573-6.246-4.092.643-6.888 4.481-6.246 8.573l11.255 71.662-143.776-78.053zm396.714-93.87 47.598 19.569-102.313 63.916z"/><path d="m456.135 215.755c-4.143 0-7.5 3.358-7.5 7.5v.1c0 4.142 3.357 7.45 7.5 7.45s7.5-3.408 7.5-7.55-3.357-7.5-7.5-7.5z"/><path d="m458.423 247.725v.1c0 4.142 3.357 7.5 7.5 7.5s7.5-3.358 7.5-7.5v-.1c0-4.142-3.357-7.5-7.5-7.5s-7.5 3.358-7.5 7.5z"/><path d="m436.211 244.713v.1c0 4.142 3.357 7.5 7.5 7.5s7.5-3.358 7.5-7.5v-.1c0-4.142-3.357-7.5-7.5-7.5s-7.5 3.358-7.5 7.5z"/><path d="m206.963 204.872c4.142 0 7.5-3.358 7.5-7.5v-.1c0-4.142-3.358-7.5-7.5-7.5s-7.5 3.358-7.5 7.5v.1c0 4.143 3.358 7.5 7.5 7.5z"/><path d="m224.23 185.578c4.142 0 7.5-3.358 7.5-7.5v-.1c0-4.142-3.358-7.5-7.5-7.5s-7.5 3.358-7.5 7.5v.1c0 4.142 3.358 7.5 7.5 7.5z"/><path d="m224.337 202.072v.1c0 4.142 3.358 7.5 7.5 7.5s7.5-3.358 7.5-7.5v-.1c0-4.142-3.358-7.5-7.5-7.5s-7.5 3.358-7.5 7.5z"/><path d="m51.054 338.007c-4.142 0-7.5 3.358-7.5 7.5v.1c0 4.142 3.358 7.5 7.5 7.5s7.5-3.358 7.5-7.5v-.1c0-4.142-3.357-7.5-7.5-7.5z"/><path d="m72.734 351.216c-4.142 0-7.5 3.358-7.5 7.5v.1c0 4.142 3.358 7.45 7.5 7.45s7.5-3.408 7.5-7.55-3.358-7.5-7.5-7.5z"/><path d="m73.229 327.943c-4.142 0-7.5 3.358-7.5 7.5v.1c0 4.142 3.358 7.45 7.5 7.45s7.5-3.408 7.5-7.55-3.358-7.5-7.5-7.5z"/><path d="m170.098 91.457c-4.142 0-7.5 3.358-7.5 7.5v.1c0 4.142 3.358 7.45 7.5 7.45s7.5-3.408 7.5-7.55-3.358-7.5-7.5-7.5z"/><path d="m100.324 202.022v.1c0 4.142 3.358 7.5 7.5 7.5s7.5-3.358 7.5-7.5v-.1c0-4.142-3.358-7.5-7.5-7.5s-7.5 3.358-7.5 7.5z"/><path d="m124.625 182.125c0-4.142-3.358-7.5-7.5-7.5s-7.5 3.358-7.5 7.5v.1c0 4.142 3.358 7.45 7.5 7.45s7.5-3.408 7.5-7.55z"/></g></g></svg>